<?xml version="1.0" encoding="UTF-8"?>
<svg width="265.48" height="261.1" version="1.1" viewBox="0 0 70.241 69.083" xmlns="http://www.w3.org/2000/svg">
 <g fill="#fff" stroke-width=".3112">
  <path transform="scale(.26458)" d="m159.53 104.79c0.065-0.18089 2.849-3.6431 6.1866-7.6938 7.146-8.6726 10.917-13.654 15.542-20.527 9.6527-14.344 17.214-29.442 21.38-42.686l1.1867-3.7729 3.1339-0.51064c16.164-2.6337 32.406-10.077 47.605-21.816 5.7971-4.4773 7.6511-5.8372 7.7809-5.7073 0.0595 0.05945-0.59673 0.94717-1.4582 1.9727-13.911 16.561-23.443 36.394-26.103 54.315l-0.3484 2.3467-3.0061 0.71918c-3.9048 0.93418-10.23 3.2978-16.061 6.0016-14.743 6.8358-27.931 15.493-48.096 31.574-7.4818 5.9661-7.9276 6.2991-7.7426 5.7844z"/>
  <path transform="scale(.26458)" d="m8.8693 253.32c0-0.30392 1.7451-2.4853 9.9626-12.453 10.274-12.462 14.791-18.513 21.925-29.37 12.201-18.568 20.631-35.58 26.499-53.474l2.062-6.2885 1.4404-0.19945c3.3412-0.46264 11.127-2.0884 14.704-3.0704 8.8999-2.4432 17.064-5.6314 25.948-10.133 10.055-5.0947 17.299-9.7178 26.608-16.98 6.2178-4.8508 10.565-8.0424 10.729-7.8777 0.062 0.062-1.006 1.4428-2.3735 3.0683-5.4475 6.4756-12.372 16.138-16.566 23.116-9.6675 16.085-16.518 34.541-18.872 50.84l-0.36621 2.5363-2.9949 0.69206c-13.467 3.112-33.997 12.91-52.648 25.125-10.179 6.667-19.537 13.635-38.821 28.906-3.3814 2.6777-6.3931 5.0802-6.6926 5.339-0.29953 0.25874-0.54461 0.35919-0.54461 0.22322z"/>
 </g>
 <g transform="translate(-49.859 -62.867)" display="none">
  <path transform="translate(49.859 62.867)" d="m0.082166 0v29.439h-0.082166v39.624h40.017v0.02015h30.219v-39.649h0.0057v-29.433h-29.937zm69.719 0.18862v0.063045c-3.9481 4.4388-6.9772 9.9175-7.736 15.849-2.2077 0.43534-4.3508 1.405-6.3521 2.4055-5.1811 2.5902-9.5267 6.2146-14.025 9.7958 1.4364-1.9403 3.0957-3.7158 4.5346-5.6606 3.3332-4.505 6.107-9.3157 7.6667-14.716 4.1741-0.53402 8.0009-2.1894 11.509-4.4907 1.5249-1.0004 2.8747-2.2653 4.4028-3.2453zm-30.141 29.536h0.04858v0.05271c-5.315 5.9756-9.3923 13.352-10.414 21.336-2.9721 0.58606-5.8572 1.8917-8.5514 3.2386-6.975 3.487-12.825 8.3657-18.881 13.187 1.9338-2.6121 4.1674-5.0021 6.1045-7.6202 4.4872-6.0648 8.2211-12.541 10.321-19.812 5.6192-0.71891 10.772-2.947 15.494-6.0451 2.0366-1.3361 3.8411-3.0224 5.8782-4.3372z" stroke-width=".25533"/>
 </g>
</svg>
