<?xml version="1.0" encoding="UTF-8"?>
<svg id="SVGRoot" enable-background="new" version="1.1" viewBox="0 0 600 400" xmlns="http://www.w3.org/2000/svg">
 <defs>
  <clipPath id="patternClipPath">
   <rect id="clipPathRect" width="600" height="400" color="#000000" enable-background="accumulate" fill="#ff0"/>
  </clipPath>
 </defs>
 <g id="patternLayer">
  <g id="fullPattern" clip-path="url(#patternClipPath)">
   <g id="designTop" transform="scale(6,4)">
    <g fill="#fff" stroke-width=".063522">
     <g transform="translate(-.011509)">
      <path d="m-5.9403e-4 72.03c-0.01367-0.0435-0.09357-1.1476-0.17762-2.4537-0.17991-2.7963-0.32255-4.3435-0.58748-6.3761-0.55286-4.242-1.4411-8.2475-2.5109-11.325l-0.30478-0.87673 0.30915-0.64426c1.5945-3.3229 2.6315-7.5099 3.0392-12.272 0.15554-1.8162 0.21376-2.3844 0.24437-2.3844 0.01401-8e-6 0.04129 0.27292 0.06063 0.60649 0.3123 5.3866 1.5263 10.578 3.3248 14.216l0.2355 0.47642-0.26951 0.65853c-0.35009 0.8554-0.81695 2.3914-1.1855 3.9001-0.93186 3.8146-1.4658 7.6762-1.9471 14.084-0.17862 2.3772-0.19192 2.5149-0.23077 2.3912z"/>
      <path d="m0.0090646 28.603c-0.03581-0.05382-0.08723-0.74783-0.29349-3.9625-0.25785-4.0191-0.43864-5.8873-0.87739-9.0676-0.75035-5.4391-1.7617-9.9366-3.179-14.137l-0.49809-1.4761 0.14624-0.28988c0.33924-0.67242 1.0652-2.3361 1.371-3.142 0.76092-2.0052 1.3473-4.0119 1.8638-6.3782 0.58457-2.6781 0.89344-4.7759 1.1347-7.7052 0.1611-1.9566 0.29729-3.2893 0.33602-3.2892 0.01461 0 0.05148 0.43288 0.08188 0.96196 0.12116 2.1077 0.44382 5.0398 0.77191 7.0147 0.7563 4.5524 2.124 9.0259 3.7674 12.323l0.25574 0.51309-0.27139 0.65176c-1.2203 2.9307-2.4851 8.2919-3.2436 13.748-0.41389 2.9779-0.69555 5.8639-1.1685 11.972-0.08292 1.0711-0.15472 2.0282-0.15952 2.1269-0.0048 0.0987-0.02185 0.15978-0.03788 0.13572z"/>
      <path d="m0.0090645 128.6c-0.03581-0.0538-0.08723-0.74783-0.29349-3.9625-0.25785-4.0191-0.43864-5.8873-0.87739-9.0676-0.75035-5.4391-1.7617-9.9366-3.179-14.137l-0.49809-1.4761 0.14625-0.28989c0.33924-0.67241 1.0652-2.3361 1.371-3.142 0.76092-2.0052 1.3473-4.0119 1.8638-6.3782 0.58457-2.6781 0.89344-4.7759 1.1347-7.7052 0.1611-1.9566 0.29729-3.2893 0.33602-3.2892 0.01461 0 0.05148 0.43288 0.08188 0.96196 0.12116 2.1077 0.44382 5.0398 0.77191 7.0147 0.7563 4.5524 2.124 9.0259 3.7674 12.323l0.25574 0.51309-0.27139 0.65176c-1.2203 2.9307-2.4851 8.2919-3.2436 13.748-0.41388 2.9779-0.69554 5.8639-1.1685 11.972-0.08292 1.0711-0.15472 2.0282-0.15952 2.1269-0.0048 0.0987-0.02185 0.15978-0.03788 0.13572z"/>
     </g>
     <g transform="translate(99.988)">
      <path d="m-5.9403e-4 72.03c-0.01367-0.0435-0.09357-1.1476-0.17762-2.4537-0.17991-2.7963-0.32255-4.3435-0.58748-6.3761-0.55286-4.242-1.4411-8.2475-2.5109-11.325l-0.30478-0.87673 0.30915-0.64426c1.5945-3.3229 2.6315-7.5099 3.0392-12.272 0.15554-1.8162 0.21376-2.3844 0.24437-2.3844 0.01401-8e-6 0.04129 0.27292 0.06063 0.60649 0.3123 5.3866 1.5263 10.578 3.3248 14.216l0.2355 0.47642-0.26951 0.65853c-0.35009 0.8554-0.81695 2.3914-1.1855 3.9001-0.93186 3.8146-1.4658 7.6762-1.9471 14.084-0.17862 2.3772-0.19192 2.5149-0.23077 2.3912z"/>
      <path d="m0.0090646 28.603c-0.03581-0.05382-0.08723-0.74783-0.29349-3.9625-0.25785-4.0191-0.43864-5.8873-0.87739-9.0676-0.75035-5.4391-1.7617-9.9366-3.179-14.137l-0.49809-1.4761 0.14624-0.28988c0.33924-0.67242 1.0652-2.3361 1.371-3.142 0.76092-2.0052 1.3473-4.0119 1.8638-6.3782 0.58457-2.6781 0.89344-4.7759 1.1347-7.7052 0.1611-1.9566 0.29729-3.2893 0.33602-3.2892 0.01461 0 0.05148 0.43288 0.08188 0.96196 0.12116 2.1077 0.44382 5.0398 0.77191 7.0147 0.7563 4.5524 2.124 9.0259 3.7674 12.323l0.25574 0.51309-0.27139 0.65176c-1.2203 2.9307-2.4851 8.2919-3.2436 13.748-0.41389 2.9779-0.69555 5.8639-1.1685 11.972-0.08292 1.0711-0.15472 2.0282-0.15952 2.1269-0.0048 0.0987-0.02185 0.15978-0.03788 0.13572z"/>
      <path d="m0.0090645 128.6c-0.03581-0.0538-0.08723-0.74783-0.29349-3.9625-0.25785-4.0191-0.43864-5.8873-0.87739-9.0676-0.75035-5.4391-1.7617-9.9366-3.179-14.137l-0.49809-1.4761 0.14625-0.28989c0.33924-0.67241 1.0652-2.3361 1.371-3.142 0.76092-2.0052 1.3473-4.0119 1.8638-6.3782 0.58457-2.6781 0.89344-4.7759 1.1347-7.7052 0.1611-1.9566 0.29729-3.2893 0.33602-3.2892 0.01461 0 0.05148 0.43288 0.08188 0.96196 0.12116 2.1077 0.44382 5.0398 0.77191 7.0147 0.7563 4.5524 2.124 9.0259 3.7674 12.323l0.25574 0.51309-0.27139 0.65176c-1.2203 2.9307-2.4851 8.2919-3.2436 13.748-0.41388 2.9779-0.69554 5.8639-1.1685 11.972-0.08292 1.0711-0.15472 2.0282-0.15952 2.1269-0.0048 0.0987-0.02185 0.15978-0.03788 0.13572z"/>
     </g>
     <g transform="translate(49.988)">
      <path d="m-5.9403e-4 72.03c-0.01367-0.0435-0.09357-1.1476-0.17762-2.4537-0.17991-2.7963-0.32255-4.3435-0.58748-6.3761-0.55286-4.242-1.4411-8.2475-2.5109-11.325l-0.30478-0.87673 0.30915-0.64426c1.5945-3.3229 2.6315-7.5099 3.0392-12.272 0.15554-1.8162 0.21376-2.3844 0.24437-2.3844 0.01401-8e-6 0.04129 0.27292 0.06063 0.60649 0.3123 5.3866 1.5263 10.578 3.3248 14.216l0.2355 0.47642-0.26951 0.65853c-0.35009 0.8554-0.81695 2.3914-1.1855 3.9001-0.93186 3.8146-1.4658 7.6762-1.9471 14.084-0.17862 2.3772-0.19192 2.5149-0.23077 2.3912z"/>
      <path d="m0.0090646 28.603c-0.03581-0.05382-0.08723-0.74783-0.29349-3.9625-0.25785-4.0191-0.43864-5.8873-0.87739-9.0676-0.75035-5.4391-1.7617-9.9366-3.179-14.137l-0.49809-1.4761 0.14624-0.28988c0.33924-0.67242 1.0652-2.3361 1.371-3.142 0.76092-2.0052 1.3473-4.0119 1.8638-6.3782 0.58457-2.6781 0.89344-4.7759 1.1347-7.7052 0.1611-1.9566 0.29729-3.2893 0.33602-3.2892 0.01461 0 0.05148 0.43288 0.08188 0.96196 0.12116 2.1077 0.44382 5.0398 0.77191 7.0147 0.7563 4.5524 2.124 9.0259 3.7674 12.323l0.25574 0.51309-0.27139 0.65176c-1.2203 2.9307-2.4851 8.2919-3.2436 13.748-0.41389 2.9779-0.69555 5.8639-1.1685 11.972-0.08292 1.0711-0.15472 2.0282-0.15952 2.1269-0.0048 0.0987-0.02185 0.15978-0.03788 0.13572z"/>
      <path d="m0.0090645 128.6c-0.03581-0.0538-0.08723-0.74783-0.29349-3.9625-0.25785-4.0191-0.43864-5.8873-0.87739-9.0676-0.75035-5.4391-1.7617-9.9366-3.179-14.137l-0.49809-1.4761 0.14625-0.28989c0.33924-0.67241 1.0652-2.3361 1.371-3.142 0.76092-2.0052 1.3473-4.0119 1.8638-6.3782 0.58457-2.6781 0.89344-4.7759 1.1347-7.7052 0.1611-1.9566 0.29729-3.2893 0.33602-3.2892 0.01461 0 0.05148 0.43288 0.08188 0.96196 0.12116 2.1077 0.44382 5.0398 0.77191 7.0147 0.7563 4.5524 2.124 9.0259 3.7674 12.323l0.25574 0.51309-0.27139 0.65176c-1.2203 2.9307-2.4851 8.2919-3.2436 13.748-0.41388 2.9779-0.69554 5.8639-1.1685 11.972-0.08292 1.0711-0.15472 2.0282-0.15952 2.1269-0.0048 0.0987-0.02185 0.15978-0.03788 0.13572z"/>
     </g>
     <g transform="translate(74.988 24.839)">
      <path d="m-5.9403e-4 72.03c-0.01367-0.0435-0.09357-1.1476-0.17762-2.4537-0.17991-2.7963-0.32255-4.3435-0.58748-6.3761-0.55286-4.242-1.4411-8.2475-2.5109-11.325l-0.30478-0.87673 0.30915-0.64426c1.5945-3.3229 2.6315-7.5099 3.0392-12.272 0.15554-1.8162 0.21376-2.3844 0.24437-2.3844 0.01401-8e-6 0.04129 0.27292 0.06063 0.60649 0.3123 5.3866 1.5263 10.578 3.3248 14.216l0.2355 0.47642-0.26951 0.65853c-0.35009 0.8554-0.81695 2.3914-1.1855 3.9001-0.93186 3.8146-1.4658 7.6762-1.9471 14.084-0.17862 2.3772-0.19192 2.5149-0.23077 2.3912z"/>
      <path d="m0.0090646 28.603c-0.03581-0.05382-0.08723-0.74783-0.29349-3.9625-0.25785-4.0191-0.43864-5.8873-0.87739-9.0676-0.75035-5.4391-1.7617-9.9366-3.179-14.137l-0.49809-1.4761 0.14624-0.28988c0.33924-0.67242 1.0652-2.3361 1.371-3.142 0.76092-2.0052 1.3473-4.0119 1.8638-6.3782 0.58457-2.6781 0.89344-4.7759 1.1347-7.7052 0.1611-1.9566 0.29729-3.2893 0.33602-3.2892 0.01461 0 0.05148 0.43288 0.08188 0.96196 0.12116 2.1077 0.44382 5.0398 0.77191 7.0147 0.7563 4.5524 2.124 9.0259 3.7674 12.323l0.25574 0.51309-0.27139 0.65176c-1.2203 2.9307-2.4851 8.2919-3.2436 13.748-0.41389 2.9779-0.69555 5.8639-1.1685 11.972-0.08292 1.0711-0.15472 2.0282-0.15952 2.1269-0.0048 0.0987-0.02185 0.15978-0.03788 0.13572z"/>
      <path d="m0.0090645 128.6c-0.03581-0.0538-0.08723-0.74783-0.29349-3.9625-0.25785-4.0191-0.43864-5.8873-0.87739-9.0676-0.75035-5.4391-1.7617-9.9366-3.179-14.137l-0.49809-1.4761 0.14625-0.28989c0.33924-0.67241 1.0652-2.3361 1.371-3.142 0.76092-2.0052 1.3473-4.0119 1.8638-6.3782 0.58457-2.6781 0.89344-4.7759 1.1347-7.7052 0.1611-1.9566 0.29729-3.2893 0.33602-3.2892 0.01461 0 0.05148 0.43288 0.08188 0.96196 0.12116 2.1077 0.44382 5.0398 0.77191 7.0147 0.7563 4.5524 2.124 9.0259 3.7674 12.323l0.25574 0.51309-0.27139 0.65176c-1.2203 2.9307-2.4851 8.2919-3.2436 13.748-0.41388 2.9779-0.69554 5.8639-1.1685 11.972-0.08292 1.0711-0.15472 2.0282-0.15952 2.1269-0.0048 0.0987-0.02185 0.15978-0.03788 0.13572z"/>
     </g>
     <g transform="translate(24.988 24.839)">
      <path d="m-5.9403e-4 72.03c-0.01367-0.0435-0.09357-1.1476-0.17762-2.4537-0.17991-2.7963-0.32255-4.3435-0.58748-6.3761-0.55286-4.242-1.4411-8.2475-2.5109-11.325l-0.30478-0.87673 0.30915-0.64426c1.5945-3.3229 2.6315-7.5099 3.0392-12.272 0.15554-1.8162 0.21376-2.3844 0.24437-2.3844 0.01401-8e-6 0.04129 0.27292 0.06063 0.60649 0.3123 5.3866 1.5263 10.578 3.3248 14.216l0.2355 0.47642-0.26951 0.65853c-0.35009 0.8554-0.81695 2.3914-1.1855 3.9001-0.93186 3.8146-1.4658 7.6762-1.9471 14.084-0.17862 2.3772-0.19192 2.5149-0.23077 2.3912z"/>
      <path d="m0.0090646 28.603c-0.03581-0.05382-0.08723-0.74783-0.29349-3.9625-0.25785-4.0191-0.43864-5.8873-0.87739-9.0676-0.75035-5.4391-1.7617-9.9366-3.179-14.137l-0.49809-1.4761 0.14624-0.28988c0.33924-0.67242 1.0652-2.3361 1.371-3.142 0.76092-2.0052 1.3473-4.0119 1.8638-6.3782 0.58457-2.6781 0.89344-4.7759 1.1347-7.7052 0.1611-1.9566 0.29729-3.2893 0.33602-3.2892 0.01461 0 0.05148 0.43288 0.08188 0.96196 0.12116 2.1077 0.44382 5.0398 0.77191 7.0147 0.7563 4.5524 2.124 9.0259 3.7674 12.323l0.25574 0.51309-0.27139 0.65176c-1.2203 2.9307-2.4851 8.2919-3.2436 13.748-0.41389 2.9779-0.69555 5.8639-1.1685 11.972-0.08292 1.0711-0.15472 2.0282-0.15952 2.1269-0.0048 0.0987-0.02185 0.15978-0.03788 0.13572z"/>
      <path d="m0.0090645 128.6c-0.03581-0.0538-0.08723-0.74783-0.29349-3.9625-0.25785-4.0191-0.43864-5.8873-0.87739-9.0676-0.75035-5.4391-1.7617-9.9366-3.179-14.137l-0.49809-1.4761 0.14625-0.28989c0.33924-0.67241 1.0652-2.3361 1.371-3.142 0.76092-2.0052 1.3473-4.0119 1.8638-6.3782 0.58457-2.6781 0.89344-4.7759 1.1347-7.7052 0.1611-1.9566 0.29729-3.2893 0.33602-3.2892 0.01461 0 0.05148 0.43288 0.08188 0.96196 0.12116 2.1077 0.44382 5.0398 0.77191 7.0147 0.7563 4.5524 2.124 9.0259 3.7674 12.323l0.25574 0.51309-0.27139 0.65176c-1.2203 2.9307-2.4851 8.2919-3.2436 13.748-0.41388 2.9779-0.69554 5.8639-1.1685 11.972-0.08292 1.0711-0.15472 2.0282-0.15952 2.1269-0.0048 0.0987-0.02185 0.15978-0.03788 0.13572z"/>
     </g>
    </g>
   </g>
  </g>
 </g>
</svg>
